<?xml version="1.0" encoding="UTF-8"?>
<!--Generator: Apple Native CoreSVG 175.5-->
<!DOCTYPE svg
PUBLIC "-//W3C//DTD SVG 1.1//EN"
       "http://www.w3.org/Graphics/SVG/1.1/DTD/svg11.dtd">
<svg version="1.1" xmlns="http://www.w3.org/2000/svg" xmlns:xlink="http://www.w3.org/1999/xlink" width="50.8887" height="31.2012">
 <g>
  <rect height="31.2012" opacity="0" width="50.8887" x="0" y="0"/>
  <path d="M25.459 31.2012C26.1914 31.2012 26.9238 30.9082 27.4219 30.3516L50.0977 7.11914C50.5957 6.62109 50.8887 5.97656 50.8887 5.24414C50.8887 3.7207 49.7461 2.54883 48.2227 2.54883C47.4902 2.54883 46.8164 2.8418 46.3184 3.31055L23.877 26.25L27.0117 26.25L4.57031 3.31055C4.10156 2.8418 3.42773 2.54883 2.66602 2.54883C1.14258 2.54883 0 3.7207 0 5.24414C0 5.97656 0.292969 6.62109 0.791016 7.14844L23.4668 30.3516C24.0234 30.9082 24.6973 31.2012 25.459 31.2012Z" fill="#ffffff" fill-opacity="0.85"/>
 </g>
</svg>
