<?xml version="1.0" encoding="UTF-8"?>
<!--Generator: Apple Native CoreSVG 175.5-->
<!DOCTYPE svg
PUBLIC "-//W3C//DTD SVG 1.1//EN"
       "http://www.w3.org/Graphics/SVG/1.1/DTD/svg11.dtd">
<svg version="1.1" xmlns="http://www.w3.org/2000/svg" xmlns:xlink="http://www.w3.org/1999/xlink" width="50.8887" height="31.0254">
 <g>
  <rect height="31.0254" opacity="0" width="50.8887" x="0" y="0"/>
  <path d="M0.791016 24.082C0.292969 24.5508 0 25.2246 0 25.9863C0 27.5098 1.14258 28.6523 2.66602 28.6523C3.42773 28.6523 4.13086 28.3887 4.57031 27.8906L27.0117 4.98047L23.877 4.98047L46.3184 27.8906C46.7871 28.3887 47.4902 28.6523 48.2227 28.6523C49.7461 28.6523 50.8887 27.5098 50.8887 25.9863C50.8887 25.2246 50.5957 24.5508 50.0977 24.082L27.4219 0.878906C26.9238 0.322266 26.1914 0 25.459 0C24.6973 0 23.9941 0.322266 23.4668 0.878906Z" fill="#ffffff" fill-opacity="0.85"/>
 </g>
</svg>
