<?xml version="1.0" encoding="UTF-8"?>
<!--Generator: Apple Native CoreSVG 175.5-->
<!DOCTYPE svg
PUBLIC "-//W3C//DTD SVG 1.1//EN"
       "http://www.w3.org/Graphics/SVG/1.1/DTD/svg11.dtd">
<svg version="1.1" xmlns="http://www.w3.org/2000/svg" xmlns:xlink="http://www.w3.org/1999/xlink" width="59.7656" height="59.7949">
 <g>
  <rect height="59.7949" opacity="0" width="59.7656" x="0" y="0"/>
  <path d="M29.8828 59.7656C46.2305 59.7656 59.7656 46.2012 59.7656 29.8828C59.7656 13.5352 46.2012 0 29.8535 0C13.5352 0 0 13.5352 0 29.8828C0 46.2012 13.5645 59.7656 29.8828 59.7656Z" fill="#e8b261"/>
  <path d="M29.9121 45.7031C21.2695 45.7031 14.0625 38.4961 14.0625 29.8828C14.0625 25.5176 15.9961 21.1816 19.2773 18.2812C21.3281 16.3184 24.1699 19.2773 22.0312 21.2695C19.6289 23.4961 18.2812 26.543 18.2812 29.8828C18.2812 36.3574 23.4375 41.543 29.9121 41.543C36.3867 41.543 41.5723 36.3574 41.5723 29.8828C41.543 26.543 40.166 23.4961 37.793 21.2988C35.6543 19.3066 38.4961 16.3477 40.5762 18.2812C43.8281 21.2402 45.7617 25.5469 45.7617 29.8828C45.7617 38.4961 38.5547 45.7031 29.9121 45.7031ZM29.9121 30.5566C28.7402 30.5566 27.9199 29.707 27.9199 28.5059L27.9199 15.293C27.9199 14.0625 28.7402 13.2129 29.9121 13.2129C31.084 13.2129 31.9336 14.0625 31.9336 15.293L31.9336 28.5059C31.9336 29.707 31.084 30.5566 29.9121 30.5566Z" fill="#ffffff" fill-opacity="0.85"/>
 </g>
</svg>
