<?xml version="1.0" encoding="UTF-8"?>
<!--Generator: Apple Native CoreSVG 175.5-->
<!DOCTYPE svg
PUBLIC "-//W3C//DTD SVG 1.1//EN"
       "http://www.w3.org/Graphics/SVG/1.1/DTD/svg11.dtd">
<svg version="1.1" xmlns="http://www.w3.org/2000/svg" xmlns:xlink="http://www.w3.org/1999/xlink" width="60.2051" height="67.4121">
 <g>
  <rect height="67.4121" opacity="0" width="60.2051" x="0" y="0"/>
  <path d="M10.3711 22.2363L49.834 22.2363C52.2949 22.2363 54.5801 22.793 56.4844 23.7598L50.2441 8.70117C48.6328 4.7168 45.1758 2.60742 40.6641 2.60742L19.541 2.60742C15 2.60742 11.5723 4.7168 9.96094 8.70117L3.69141 23.7598C5.625 22.793 7.91016 22.2363 10.3711 22.2363ZM10.3711 46.4355L49.834 46.4355C55.9863 46.4355 60.2051 42.2461 60.2051 36.1523C60.2051 30.0586 55.9863 25.8105 49.834 25.8105L10.3711 25.8105C4.21875 25.8105 0 30.0586 0 36.1523C0 42.2461 4.21875 46.4355 10.3711 46.4355ZM46.0547 36.1523C46.0547 34.3652 47.6074 32.7832 49.4238 32.7832C51.2402 32.7832 52.8223 34.3652 52.8223 36.1523C52.8223 38.0273 51.2402 39.4922 49.4238 39.5215C47.6074 39.5215 46.0547 38.0566 46.0547 36.1523ZM27.7441 60.7617L32.4609 60.7617L32.4609 44.2676L27.7441 44.2676ZM5.74219 63.1055L54.4629 63.1055C55.752 63.1055 56.8066 62.0508 56.8066 60.7617C56.8066 59.4434 55.752 58.3887 54.4629 58.3887L5.74219 58.3887C4.45312 58.3887 3.39844 59.4434 3.39844 60.7617C3.39844 62.0508 4.45312 63.1055 5.74219 63.1055ZM30.0879 67.4121C33.7207 67.4121 36.709 64.4238 36.709 60.791C36.709 57.1582 33.7207 54.1699 30.0879 54.1699C26.4844 54.1699 23.4961 57.1582 23.4961 60.791C23.4961 64.4238 26.4844 67.4121 30.0879 67.4121Z" fill="#ffffff" fill-opacity="0.85"/>
 </g>
</svg>
