<?xml version="1.0" encoding="UTF-8"?>
<!--Generator: Apple Native CoreSVG 175.5-->
<!DOCTYPE svg
PUBLIC "-//W3C//DTD SVG 1.1//EN"
       "http://www.w3.org/Graphics/SVG/1.1/DTD/svg11.dtd">
<svg version="1.1" xmlns="http://www.w3.org/2000/svg" xmlns:xlink="http://www.w3.org/1999/xlink" width="38.1152" height="65.1855">
 <g>
  <rect height="65.1855" opacity="0" width="38.1152" x="0" y="0"/>
  <path d="M15.3516 65.0977C23.7891 65.0977 30.6152 58.2422 30.6152 49.8047C30.6152 45.3516 28.7988 41.4551 25.2832 38.291C24.668 37.7344 24.5215 37.3828 24.5215 36.5039L24.5215 10.0195C24.5215 4.07227 20.8008 0 15.3516 0C9.84375 0 6.09375 4.07227 6.09375 10.0195L6.09375 36.5039C6.09375 37.3828 5.97656 37.7344 5.33203 38.291C1.8457 41.4551 0 45.3516 0 49.8047C0 58.2422 6.85547 65.0977 15.3516 65.0977ZM15.3516 60.8496C9.22852 60.8496 4.30664 55.8691 4.30664 49.8047C4.30664 46.1426 6.03516 42.832 9.14062 40.752C10.0488 40.1367 10.4004 39.5801 10.4004 38.3789L10.4004 10.1953C10.4004 6.67969 12.4219 4.30664 15.3516 4.30664C18.2227 4.30664 20.2441 6.67969 20.2441 10.1953L20.2441 38.3789C20.2441 39.5801 20.5957 40.1367 21.5039 40.752C24.6094 42.832 26.3379 46.1426 26.3379 49.8047C26.3379 55.8691 21.3867 60.8496 15.3516 60.8496ZM15.3223 56.8945C19.248 56.8945 22.4121 53.7305 22.4121 49.7754C22.4121 47.0215 20.8594 44.7656 18.6035 43.5352C17.666 43.0371 17.3438 42.6855 17.3438 41.25L17.3438 25.5762C17.3438 24.1699 16.4355 23.2617 15.3223 23.2617C14.1797 23.2617 13.3008 24.1699 13.3008 25.5762L13.3008 41.25C13.3008 42.6855 12.9785 43.0371 12.041 43.5352C9.78516 44.7656 8.23242 47.0215 8.23242 49.7754C8.23242 53.7305 11.3965 56.8945 15.3223 56.8945ZM30.0293 10.752L36.3867 10.752C37.4121 10.752 38.1152 9.96094 38.1152 9.05273C38.1152 8.14453 37.4121 7.35352 36.3867 7.35352L30.0293 7.35352C29.0039 7.35352 28.3008 8.14453 28.3008 9.05273C28.3008 9.96094 29.0039 10.752 30.0293 10.752ZM30.0293 18.9844L36.3867 18.9844C37.4121 18.9844 38.1152 18.1934 38.1152 17.2852C38.1152 16.377 37.4121 15.5859 36.3867 15.5859L30.0293 15.5859C29.0039 15.5859 28.3008 16.377 28.3008 17.2852C28.3008 18.1934 29.0039 18.9844 30.0293 18.9844ZM30.0293 27.2168L36.3867 27.2168C37.4121 27.2168 38.1152 26.4258 38.1152 25.5176C38.1152 24.6094 37.4121 23.7891 36.3867 23.7891L30.0293 23.7891C29.0039 23.7891 28.3008 24.6094 28.3008 25.5176C28.3008 26.4258 29.0039 27.2168 30.0293 27.2168ZM30.0293 35.4492L36.3867 35.4492C37.4121 35.4492 38.1152 34.6582 38.1152 33.75C38.1152 32.8125 37.4121 32.0215 36.3867 32.0215L30.0293 32.0215C29.0039 32.0215 28.3008 32.8125 28.3008 33.75C28.3008 34.6582 29.0039 35.4492 30.0293 35.4492Z" fill="#ffffff" fill-opacity="0.85"/>
 </g>
</svg>
