<svg width="55" height="36" viewBox="0 0 55 36" fill="none" xmlns="http://www.w3.org/2000/svg">
<path fill-rule="evenodd" clip-rule="evenodd" d="M20.5 35.5H34.5C39.5 35.5 41.5 30.5 41.5 27.5H27.5C22.5 27.5 20.5 32.5 20.5 35.5ZM20.5 24.5V16.5H34.5C39.5 16.5 41.5 21.5 41.5 24.5H20.5Z" fill="#D9D9D9"/>
<path d="M40 1.66667C40 0.476191 38.75 0 38 0V3.33333C38 4.52381 39.25 5 40 5V1.66667Z" fill="#D9D9D9"/>
<path d="M28.5 5.5C35.5 5.5 55 10.5 55 13.5H27.5C22.5 13.5 21.5 11.5 21.5 8.5C30.5 12.5 21.5 5.5 28.5 5.5Z" fill="#D9D9D9"/>
<path d="M28.5 5.5C21.5 5.5 1.90735e-06 10.5 1.90735e-06 13.5H27.5C32.5 13.5 30 11.5 30 9.5C30 7.5 28.5 8 28.5 5.5Z" fill="#D9D9D9"/>
</svg>
