<svg width="322" height="382" viewBox="0 0 322 382" fill="none" xmlns="http://www.w3.org/2000/svg">
<g filter="url(#filter0_d_9_9)">
<path d="M40 65C40 48.9837 52.9837 36 69 36H270C276.627 36 282 41.3726 282 48V326C282 332.627 276.627 338 270 338H52C45.3726 338 40 332.627 40 326V65Z" fill="url(#paint0_linear_9_9)"/>
<path d="M40 65C40 48.9837 52.9837 36 69 36H270C276.627 36 282 41.3726 282 48V326C282 332.627 276.627 338 270 338H52C45.3726 338 40 332.627 40 326V65Z" fill="url(#paint1_linear_9_9)"/>
<path d="M40 65C40 48.9837 52.9837 36 69 36H270C276.627 36 282 41.3726 282 48V326C282 332.627 276.627 338 270 338H52C45.3726 338 40 332.627 40 326V65Z" fill="url(#paint2_radial_9_9)"/>
<path d="M69 36.5H270C276.351 36.5 281.5 41.6487 281.5 48V326C281.5 332.351 276.351 337.5 270 337.5H52C45.6487 337.5 40.5 332.351 40.5 326V65C40.5 49.2599 53.2599 36.5 69 36.5Z" stroke="url(#paint3_linear_9_9)" stroke-opacity="0.7"/>
</g>
<defs>
<filter id="filter0_d_9_9" x="0" y="0" width="322" height="382" filterUnits="userSpaceOnUse" color-interpolation-filters="sRGB">
<feFlood flood-opacity="0" result="BackgroundImageFix"/>
<feColorMatrix in="SourceAlpha" type="matrix" values="0 0 0 0 0 0 0 0 0 0 0 0 0 0 0 0 0 0 127 0" result="hardAlpha"/>
<feMorphology radius="10" operator="dilate" in="SourceAlpha" result="effect1_dropShadow_9_9"/>
<feOffset dy="4"/>
<feGaussianBlur stdDeviation="15"/>
<feComposite in2="hardAlpha" operator="out"/>
<feColorMatrix type="matrix" values="0 0 0 0 0 0 0 0 0 0 0 0 0 0 0 0 0 0 0.1 0"/>
<feBlend mode="normal" in2="BackgroundImageFix" result="effect1_dropShadow_9_9"/>
<feBlend mode="normal" in="SourceGraphic" in2="effect1_dropShadow_9_9" result="shape"/>
</filter>
<linearGradient id="paint0_linear_9_9" x1="40" y1="36" x2="282" y2="36" gradientUnits="userSpaceOnUse">
<stop stop-color="#2AC0DF"/>
<stop offset="0.526042" stop-color="#2AC0DF"/>
<stop offset="1" stop-color="#297EC6"/>
</linearGradient>
<linearGradient id="paint1_linear_9_9" x1="282" y1="325.5" x2="41.1829" y2="35.0193" gradientUnits="userSpaceOnUse">
<stop stop-color="#3261B1"/>
<stop offset="0.578125" stop-color="#3076BB" stop-opacity="0.5"/>
<stop offset="0.9998" stop-color="#2AC0DF" stop-opacity="0"/>
<stop offset="0.9999" stop-color="#2AC0DF" stop-opacity="0"/>
<stop offset="1" stop-color="#2AC0DF" stop-opacity="0"/>
<stop offset="1" stop-color="#2AC0DF" stop-opacity="0"/>
</linearGradient>
<radialGradient id="paint2_radial_9_9" cx="0" cy="0" r="1" gradientUnits="userSpaceOnUse" gradientTransform="translate(160.498 187) rotate(90) scale(151 158.929)">
<stop stop-color="#2BC0DF"/>
<stop offset="1" stop-color="#2BC0DF" stop-opacity="0"/>
</radialGradient>
<linearGradient id="paint3_linear_9_9" x1="40" y1="85" x2="215.616" y2="234.718" gradientUnits="userSpaceOnUse">
<stop stop-color="#74E5FE"/>
<stop offset="1" stop-color="#74E5FE" stop-opacity="0.26"/>
</linearGradient>
</defs>
</svg>
