<?xml version="1.0" encoding="UTF-8"?>
<!--Generator: Apple Native CoreSVG 175.5-->
<!DOCTYPE svg
PUBLIC "-//W3C//DTD SVG 1.1//EN"
       "http://www.w3.org/Graphics/SVG/1.1/DTD/svg11.dtd">
<svg version="1.1" xmlns="http://www.w3.org/2000/svg" xmlns:xlink="http://www.w3.org/1999/xlink" width="66.8848" height="73.5464">
 <g>
  <rect height="73.5464" opacity="0" width="66.8848" x="0" y="0"/>
  <path d="M7.64648 61.9832C8.52539 62.4812 9.58008 62.1882 10.0781 61.3093L13.8867 54.7175C14.4141 53.8093 14.1211 52.7839 13.2422 52.2566C12.3633 51.7585 11.3672 52.0515 10.8398 52.9304L7.00195 59.6101C6.50391 60.4597 6.73828 61.4851 7.64648 61.9832ZM13.3301 70.1863C14.209 70.655 15.2637 70.3621 15.7617 69.5125L19.5703 62.8914C20.0977 62.0125 19.8047 60.9871 18.9258 60.4597C18.0469 59.9324 17.0508 60.2253 16.5234 61.1335L12.6562 67.7839C12.1875 68.6335 12.4219 69.6589 13.3301 70.1863ZM48.3691 61.9832C49.248 62.4812 50.3027 62.1882 50.8008 61.3093L54.6094 54.7175C55.1367 53.8093 54.8438 52.7839 53.9941 52.2566C53.0859 51.7585 52.0898 52.0515 51.5625 52.9304L47.7246 59.6101C47.2266 60.4597 47.4609 61.4851 48.3691 61.9832ZM54.0527 70.1863C54.9316 70.655 55.9863 70.3621 56.4844 69.5125L60.293 62.8914C60.8203 62.0125 60.5273 60.9871 59.6777 60.4597C58.7695 59.9324 57.7734 60.2253 57.2461 61.1335L53.4082 67.7839C52.9102 68.6335 53.1445 69.6589 54.0527 70.1863Z" fill="#e8b261"/>
  <path d="M13.7695 47.5984L50.127 47.5984C59.7363 47.5984 66.8848 40.3035 66.8848 31.28C66.8848 21.9343 59.2676 15.1082 49.3359 15.1082C45.6738 7.87183 38.877 3.21362 30.4102 3.21362C19.3945 3.21362 10.3125 11.8562 9.3457 22.7253C4.04297 24.2781 0 28.8777 0 35.0593C0 42.0027 5.03906 47.5984 13.7695 47.5984ZM40.4883 58.4675L33.8379 58.4675L33.7793 59.7859L37.3535 52.9304C37.7051 52.2859 37.4414 51.7878 36.7969 51.7878L30.4395 51.7878C29.5898 51.7878 29.2969 52.0808 29.0332 52.696L25.0488 61.7781C24.7266 62.5105 25.0488 62.95 25.8105 62.95L31.2305 62.95L31.6113 61.2214L26.8945 72.6765C26.748 73.0574 26.8359 73.3796 27.0996 73.4968C27.3633 73.614 27.6855 73.5261 28.0078 73.2039L40.957 59.9324C41.5723 59.2878 41.3379 58.4675 40.4883 58.4675Z" fill="#ffffff" fill-opacity="0.85"/>
 </g>
</svg>
