<?xml version="1.0" encoding="UTF-8"?>
<!--Generator: Apple Native CoreSVG 175.5-->
<!DOCTYPE svg
PUBLIC "-//W3C//DTD SVG 1.1//EN"
       "http://www.w3.org/Graphics/SVG/1.1/DTD/svg11.dtd">
<svg version="1.1" xmlns="http://www.w3.org/2000/svg" xmlns:xlink="http://www.w3.org/1999/xlink" width="66.8848" height="73.5464">
 <g>
  <rect height="73.5464" opacity="0" width="66.8848" x="0" y="0"/>
  <path d="M40.4883 58.4675L33.8379 58.4675L33.7793 59.7859L37.3535 52.9304C37.7051 52.2859 37.4414 51.7878 36.7969 51.7878L30.4395 51.7878C29.5898 51.7878 29.2969 52.0808 29.0332 52.696L25.0488 61.7781C24.7266 62.5105 25.0488 62.95 25.8105 62.95L31.2305 62.95L31.6113 61.2214L26.8945 72.6765C26.748 73.0574 26.8359 73.3796 27.0996 73.4968C27.3633 73.614 27.6855 73.5261 28.0078 73.2039L40.957 59.9324C41.5723 59.2878 41.3379 58.4675 40.4883 58.4675Z" fill="#e8b261"/>
  <path d="M13.7695 47.5984L50.127 47.5984C59.7363 47.5984 66.8848 40.3035 66.8848 31.28C66.8848 21.9343 59.2676 15.1082 49.3359 15.1082C45.6738 7.87183 38.877 3.21362 30.4102 3.21362C19.3945 3.21362 10.3125 11.8562 9.3457 22.7253C4.04297 24.2781 0 28.8777 0 35.0593C0 42.0027 5.03906 47.5984 13.7695 47.5984Z" fill="#ffffff" fill-opacity="0.85"/>
 </g>
</svg>
