<?xml version="1.0" encoding="UTF-8"?>
<!--Generator: Apple Native CoreSVG 175.5-->
<!DOCTYPE svg
PUBLIC "-//W3C//DTD SVG 1.1//EN"
       "http://www.w3.org/Graphics/SVG/1.1/DTD/svg11.dtd">
<svg version="1.1" xmlns="http://www.w3.org/2000/svg" xmlns:xlink="http://www.w3.org/1999/xlink" width="66.8848" height="67.3688">
 <g>
  <rect height="67.3688" opacity="0" width="66.8848" x="0" y="0"/>
  <path d="M14.5312 58.2205L18.3398 51.5994C18.8965 50.7205 18.6035 49.6951 17.7246 49.1678C16.8457 48.6697 15.8496 48.9334 15.293 49.8416L11.4551 56.5213C10.957 57.3416 11.2207 58.367 12.1289 58.8944C12.9785 59.3924 14.0332 59.0701 14.5312 58.2205ZM23.7012 66.453L27.5098 59.8612C28.0371 58.953 27.7734 57.9276 26.8945 57.4295C25.9863 56.9022 24.9902 57.1951 24.4629 58.1033L20.625 64.7537C20.127 65.6033 20.3906 66.6287 21.2695 67.1268C22.1484 67.6248 23.2031 67.3319 23.7012 66.453ZM37.8516 58.1912L41.6602 51.5701C42.1875 50.6912 41.8945 49.6658 41.0156 49.1385C40.1367 48.6405 39.1406 48.9041 38.6133 49.8123L34.7754 56.492C34.2773 57.3123 34.5117 58.3377 35.4199 58.8651C36.2988 59.3631 37.3535 59.0408 37.8516 58.1912ZM47.0215 66.4237L50.8301 59.8319C51.3574 58.9237 51.0645 57.8983 50.1855 57.4002C49.3066 56.8729 48.3105 57.1658 47.7832 58.074L43.916 64.7244C43.4473 65.574 43.6816 66.5994 44.5898 67.0975C45.4688 67.5955 46.5234 67.3026 47.0215 66.4237Z" fill="#e8b261"/>
  <path d="M13.7695 44.5096L50.127 44.5096C59.7363 44.5096 66.8848 37.2147 66.8848 28.1912C66.8848 18.8455 59.2676 12.0194 49.3359 12.0194C45.6738 4.78303 38.877 0.124827 30.4102 0.124827C19.3945 0.124827 10.3125 8.76741 9.3457 19.6365C4.04297 21.1893 0 25.7889 0 31.9705C0 38.9139 5.03906 44.5096 13.7695 44.5096Z" fill="#ffffff" fill-opacity="0.85"/>
 </g>
</svg>
