<?xml version="1.0" encoding="UTF-8"?>
<!--Generator: Apple Native CoreSVG 175.5-->
<!DOCTYPE svg
PUBLIC "-//W3C//DTD SVG 1.1//EN"
       "http://www.w3.org/Graphics/SVG/1.1/DTD/svg11.dtd">
<svg version="1.1" xmlns="http://www.w3.org/2000/svg" xmlns:xlink="http://www.w3.org/1999/xlink" width="84.7559" height="82.4121">
 <g>
  <rect height="82.4121" opacity="0" width="84.7559" x="0" y="0"/>
  <path d="M12.1289 58.8867L43.8281 58.8867C52.1484 58.8867 58.5938 52.5879 58.5938 44.4727C58.5938 36.416 52.0312 30.3223 43.2715 30.2637C39.8438 23.7012 33.75 19.9219 26.6602 19.9219C17.1387 19.9219 9.05273 27.3047 8.17383 36.9434C3.16406 38.4375 0 42.6562 0 47.8125C0 54.375 4.92188 58.8867 12.1289 58.8867Z" fill="#ffffff" fill-opacity="0.85"/>
  <path d="M61.9629 42.9492C66.2695 40.0195 68.9062 35.5664 68.9062 30.3809C68.9062 22.3242 62.4902 15.8496 54.4336 15.8496C49.1309 15.8496 44.5312 18.7207 42.0996 22.9395C43.3301 24.2285 44.3848 25.5762 45.2637 27.2754C54.9316 28.0664 61.1719 34.0723 61.9629 42.9492ZM37.4414 16.8457C38.4082 17.8125 39.9902 17.7832 40.8984 16.8457C41.8066 15.9082 41.8359 14.3848 40.8984 13.4473L36.3867 8.93555C35.4492 7.96875 33.9258 7.99805 32.9883 8.93555C32.0508 9.87305 32.0215 11.4258 32.9883 12.3633ZM54.4336 11.1914C55.7812 11.1914 56.8652 10.0781 56.8652 8.75977L56.8652 2.43164C56.8652 1.11328 55.7812 0 54.4336 0C53.0859 0 52.002 1.11328 52.002 2.43164L52.002 8.75977C52.002 10.0781 53.0859 11.1914 54.4336 11.1914ZM67.9688 16.8457C68.877 17.7832 70.459 17.8125 71.4258 16.8457L75.9082 12.3633C76.8457 11.4258 76.8457 9.87305 75.9082 8.93555C74.9707 7.99805 73.4473 7.96875 72.5098 8.93555L67.9688 13.4473C67.0312 14.3848 67.0605 15.9082 67.9688 16.8457ZM75.9961 32.8125L82.3535 32.8125C83.6719 32.8125 84.7559 31.7285 84.7559 30.3809C84.7559 29.0332 83.6719 27.9492 82.3535 27.9492L75.9961 27.9492C74.707 27.9492 73.5645 29.0332 73.5645 30.3809C73.5645 31.7285 74.707 32.8125 75.9961 32.8125ZM72.5098 51.8848C73.4473 52.8223 74.9707 52.793 75.9082 51.8555C76.8457 50.918 76.8457 49.3652 75.9082 48.457L71.3672 43.9746C70.4297 43.0664 68.9062 43.0371 67.9688 43.9746C67.0312 44.8828 67.0312 46.4648 67.9688 47.4023Z" fill="#e8b261"/>
  <path d="M11.8359 72.9785L15.6445 66.3867C16.1719 65.4785 15.9082 64.4531 15.0293 63.9258C14.1211 63.4277 13.125 63.7207 12.5977 64.5996L8.75977 71.2793C8.26172 72.0996 8.52539 73.1543 9.4043 73.6523C10.2832 74.1504 11.3379 73.8574 11.8359 72.9785ZM21.0059 81.2402L24.8145 74.6191C25.3418 73.7402 25.0488 72.6855 24.1992 72.1875C23.291 71.6602 22.2949 71.9531 21.7676 72.8613L17.9297 79.5117C17.4316 80.3613 17.6953 81.3867 18.5742 81.9141C19.4531 82.3828 20.5078 82.0898 21.0059 81.2402ZM35.1562 72.9492L38.9648 66.3574C39.4922 65.4492 39.1992 64.4238 38.3203 63.8965C37.4414 63.3984 36.4453 63.6914 35.918 64.5703L32.0801 71.25C31.582 72.0703 31.8164 73.125 32.7246 73.623C33.6035 74.1211 34.6582 73.8281 35.1562 72.9492ZM44.2969 81.2109L48.1348 74.5898C48.6621 73.7109 48.3691 72.6562 47.4902 72.1582C46.6113 71.6309 45.6152 71.9238 45.0586 72.832L41.2207 79.4824C40.7227 80.332 40.9863 81.3574 41.8945 81.8848C42.7441 82.3535 43.8281 82.0605 44.2969 81.2109Z" fill="#e8b261"/>
 </g>
</svg>
