<?xml version="1.0" encoding="UTF-8"?>
<!--Generator: Apple Native CoreSVG 175.5-->
<!DOCTYPE svg
PUBLIC "-//W3C//DTD SVG 1.1//EN"
       "http://www.w3.org/Graphics/SVG/1.1/DTD/svg11.dtd">
<svg version="1.1" xmlns="http://www.w3.org/2000/svg" xmlns:xlink="http://www.w3.org/1999/xlink" width="76.8457" height="73.7555">
 <g>
  <rect height="73.7555" opacity="0" width="76.8457" x="0" y="0"/>
  <path d="M11.543 64.578L15.3809 57.9862C15.9082 57.078 15.6152 56.0526 14.7363 55.5545C13.8574 55.0272 12.8613 55.3201 12.3047 56.2283L8.4668 62.8787C7.96875 63.7283 8.23242 64.7537 9.14062 65.2811C9.99023 65.7498 11.0449 65.4569 11.543 64.578ZM20.7129 72.8397L24.5215 66.2186C25.0781 65.3397 24.7852 64.3143 23.9062 63.7869C23.0273 63.2889 22.0312 63.5819 21.4746 64.4608L17.6367 71.1405C17.1387 71.9608 17.4023 72.9862 18.3105 73.5135C19.1602 74.0115 20.2148 73.7186 20.7129 72.8397ZM34.8633 64.5487L38.6719 57.9569C39.1992 57.0487 38.9062 56.0233 38.0566 55.5252C37.1484 54.9979 36.1523 55.2908 35.625 56.199L31.7871 62.8494C31.2891 63.699 31.5234 64.7244 32.4316 65.2518C33.3105 65.7205 34.3652 65.4276 34.8633 64.5487ZM44.0332 72.8104L47.8418 66.1893C48.3691 65.3104 48.0762 64.285 47.1973 63.7576C46.3184 63.2596 45.3223 63.5526 44.7949 64.4315L40.957 71.1112C40.459 71.9315 40.6934 72.9569 41.6016 73.4842C42.4805 73.9822 43.5352 73.6893 44.0332 72.8104Z" fill="#e8b261"/>
  <path d="M62.2559 35.6619C71.3965 34.0506 76.8457 26.6385 76.8457 21.8338C76.8457 20.6912 76.3184 19.8416 75.3809 19.8416C73.9746 19.8416 71.8359 21.7166 67.793 21.7166C60.6152 21.7166 56.1035 17.41 56.1035 10.8475C56.1035 6.9803 58.1836 4.1678 58.1836 2.58576C58.1836 1.67756 57.5684 1.09162 56.3965 1.12092C50.9766 1.3553 44.0918 7.39045 42.5684 15.1834C43.4766 16.033 44.3555 17.1756 45.0586 18.7283C54.9316 19.4901 62.0801 26.9315 62.2559 35.6619Z" fill="#e8b261"/>
  <path d="M12.1582 50.5447L43.8574 50.5447C52.1484 50.5447 58.5938 44.2752 58.5938 36.16C58.5938 28.074 52.0312 21.9803 43.2715 21.9217C39.8438 15.3885 33.75 11.5799 26.6602 11.5799C17.1387 11.5799 9.05273 18.992 8.17383 28.6014C3.19336 30.0955 0 34.3143 0 39.4705C0 46.033 4.95117 50.5447 12.1582 50.5447Z" fill="#ffffff" fill-opacity="0.85"/>
 </g>
</svg>
