<?xml version="1.0" encoding="UTF-8"?>
<!--Generator: Apple Native CoreSVG 175.5-->
<!DOCTYPE svg
PUBLIC "-//W3C//DTD SVG 1.1//EN"
       "http://www.w3.org/Graphics/SVG/1.1/DTD/svg11.dtd">
<svg version="1.1" xmlns="http://www.w3.org/2000/svg" xmlns:xlink="http://www.w3.org/1999/xlink" width="66.8848" height="67.5467">
 <g>
  <rect height="67.5467" opacity="0" width="66.8848" x="0" y="0"/>
  <path d="M14.5312 58.3095L18.3398 51.6884C18.8965 50.8095 18.6035 49.7841 17.7246 49.2567C16.8457 48.7587 15.8496 49.0224 15.293 49.9306L11.4551 56.6103C10.957 57.4306 11.2207 58.456 12.1289 58.9833C12.9785 59.4813 14.0332 59.1591 14.5312 58.3095ZM21.3574 66.6591L30 51.6591C30.498 50.7802 30.2637 49.7841 29.4141 49.286C28.5645 48.7587 27.4805 49.0224 26.9824 49.9306L18.3984 64.872C17.9004 65.7509 18.1348 66.7763 19.0137 67.3036C19.8633 67.8017 20.8594 67.5087 21.3574 66.6591ZM37.8516 58.2802L41.6602 51.6591C42.1875 50.7802 41.8945 49.7548 41.0156 49.2274C40.1367 48.7294 39.1406 48.9931 38.6133 49.9013L34.7754 56.581C34.2773 57.4013 34.5117 58.4267 35.4199 58.954C36.2988 59.4521 37.3535 59.1298 37.8516 58.2802ZM44.6484 66.6298L53.3203 51.6298C53.8184 50.7509 53.5547 49.7548 52.7051 49.2567C51.8848 48.7294 50.8301 48.9931 50.3027 49.9013L41.6895 64.8427C41.1914 65.7216 41.4551 66.747 42.3047 67.2743C43.1543 67.7724 44.1504 67.5087 44.6484 66.6298Z" fill="#e8b261"/>
  <path d="M13.7695 44.5985L50.127 44.5985C59.7363 44.5985 66.8848 37.3036 66.8848 28.2802C66.8848 18.9345 59.2676 12.1083 49.3359 12.1083C45.6738 4.87197 38.877 0.21377 30.4102 0.21377C19.3945 0.21377 10.3125 8.85635 9.3457 19.7255C4.04297 21.2782 0 25.8778 0 32.0595C0 39.0028 5.03906 44.5985 13.7695 44.5985Z" fill="#ffffff" fill-opacity="0.85"/>
 </g>
</svg>
