<?xml version="1.0" encoding="UTF-8"?>
<!--Generator: Apple Native CoreSVG 175.5-->
<!DOCTYPE svg
PUBLIC "-//W3C//DTD SVG 1.1//EN"
       "http://www.w3.org/Graphics/SVG/1.1/DTD/svg11.dtd">
<svg version="1.1" xmlns="http://www.w3.org/2000/svg" xmlns:xlink="http://www.w3.org/1999/xlink" width="66.8848" height="67.5467">
 <g>
  <rect height="67.5467" opacity="0" width="66.8848" x="0" y="0"/>
  <path d="M8.52539 66.6298L17.1387 51.7177C17.666 50.7802 17.373 49.7841 16.4941 49.286C15.6152 48.7587 14.6191 49.0224 14.0918 49.9599L5.44922 64.9306C4.98047 65.7509 5.21484 66.7763 6.09375 67.3036C6.97266 67.8017 8.02734 67.5087 8.52539 66.6298ZM20.2148 66.6298L28.7988 51.7177C29.3262 50.7802 29.0625 49.7841 28.1836 49.286C27.2754 48.7587 26.2793 49.0224 25.752 49.9599L17.1387 64.9306C16.6699 65.7509 16.875 66.7763 17.7832 67.3036C18.6621 67.8017 19.7168 67.5087 20.2148 66.6298ZM31.875 66.6298L40.459 51.7177C40.9863 50.7802 40.7227 49.7841 39.8438 49.286C38.9355 48.7587 37.9395 49.0224 37.4121 49.9599L28.7988 64.9306C28.3301 65.7509 28.5352 66.7763 29.4434 67.3036C30.3223 67.8017 31.377 67.5087 31.875 66.6298ZM43.4473 66.6591L52.1191 51.6591C52.6172 50.7802 52.3535 49.7255 51.4746 49.286C50.625 48.8173 49.5996 49.0224 49.1016 49.9306L40.4883 64.872C39.9609 65.7509 40.2246 66.7763 41.0742 67.3036C41.8945 67.8017 42.9785 67.5087 43.4473 66.6591Z" fill="#e8b261"/>
  <path d="M13.7695 44.5985L50.127 44.5985C59.7363 44.5985 66.8848 37.3036 66.8848 28.2802C66.8848 18.9345 59.2676 12.1083 49.3359 12.1083C45.6738 4.87197 38.877 0.21377 30.4102 0.21377C19.3945 0.21377 10.3125 8.85635 9.3457 19.7255C4.04297 21.2782 0 25.8778 0 32.0595C0 39.0028 5.03906 44.5985 13.7695 44.5985Z" fill="#ffffff" fill-opacity="0.85"/>
 </g>
</svg>
