<?xml version="1.0" encoding="UTF-8"?>
<!--Generator: Apple Native CoreSVG 175.5-->
<!DOCTYPE svg
PUBLIC "-//W3C//DTD SVG 1.1//EN"
       "http://www.w3.org/Graphics/SVG/1.1/DTD/svg11.dtd">
<svg version="1.1" xmlns="http://www.w3.org/2000/svg" xmlns:xlink="http://www.w3.org/1999/xlink" width="66.8848" height="72.9199">
 <g>
  <rect height="72.9199" opacity="0" width="66.8848" x="0" y="0"/>
  <path d="M15.4395 61.9043C15.9668 61.9043 16.3477 61.4062 16.3184 60.8789L16.1426 58.0664L18.457 59.6484C18.8672 59.9414 19.541 59.8242 19.834 59.3848C20.0977 58.9453 19.9512 58.2715 19.3652 58.0078L16.875 56.7773L19.3945 55.5176C19.9512 55.2539 20.0684 54.6387 19.8633 54.1699C19.5996 53.7012 18.8672 53.6133 18.457 53.9062L16.1426 55.5176L16.3477 52.7051C16.4062 52.1484 15.9668 51.6797 15.4395 51.6797C14.8242 51.6797 14.4727 52.1484 14.502 52.7051L14.6777 55.5176L12.334 53.9062C11.8945 53.6133 11.2793 53.6719 10.9863 54.1699C10.7227 54.6387 10.8398 55.2539 11.3965 55.5176L13.916 56.7773L11.3965 58.0078C10.8398 58.2715 10.6934 58.916 10.957 59.3848C11.2207 59.8535 11.8945 59.9414 12.334 59.6777L14.6777 58.0957L14.5312 60.8789C14.502 61.4062 14.8242 61.9043 15.4395 61.9043ZM31.6699 61.9043C32.1973 61.9043 32.5781 61.4062 32.5488 60.8789L32.373 58.0664L34.6875 59.6484C35.0977 59.9414 35.7715 59.8242 36.0645 59.3848C36.3281 58.9453 36.1816 58.2715 35.5957 58.0078L33.0762 56.7773L35.625 55.5176C36.1816 55.2539 36.2988 54.6387 36.0938 54.1699C35.8301 53.7012 35.0977 53.6133 34.6875 53.9062L32.373 55.5176L32.5781 52.7051C32.6367 52.1484 32.1973 51.6797 31.6699 51.6797C31.0547 51.6797 30.7031 52.1484 30.7324 52.7051L30.9082 55.5176L28.5352 53.9062C28.125 53.6133 27.5098 53.6719 27.2168 54.1699C26.9531 54.6387 27.0703 55.2539 27.627 55.5176L30.1465 56.7773L27.627 58.0078C27.0703 58.2715 26.9238 58.916 27.1875 59.3848C27.4512 59.8535 28.125 59.9414 28.5352 59.6777L30.9082 58.0957L30.7617 60.8789C30.7324 61.4062 31.0547 61.9043 31.6699 61.9043ZM47.9004 61.9043C48.4277 61.9043 48.8086 61.4062 48.7793 60.8789L48.5742 58.0664L50.918 59.6484C51.3281 59.9414 52.002 59.8242 52.2949 59.3848C52.5586 58.9453 52.4121 58.2715 51.8262 58.0078L49.3066 56.7773L51.8555 55.5176C52.4121 55.2539 52.5293 54.6387 52.3242 54.1699C52.0605 53.7012 51.3281 53.6133 50.918 53.9062L48.5742 55.5176L48.8086 52.7051C48.8672 52.1484 48.4277 51.6797 47.9004 51.6797C47.2852 51.6797 46.9336 52.1484 46.9629 52.7051L47.1387 55.5176L44.7656 53.9062C44.3555 53.6133 43.7402 53.6719 43.4473 54.1699C43.1836 54.6387 43.3008 55.2539 43.8574 55.5176L46.377 56.7773L43.8574 58.0078C43.3008 58.2715 43.1543 58.916 43.418 59.3848C43.6816 59.8535 44.3555 59.9414 44.7656 59.6777L47.1387 58.0957L46.9922 60.8789C46.9629 61.4062 47.2852 61.9043 47.9004 61.9043ZM9.08203 72.9199C9.60938 72.9199 9.99023 72.3926 9.96094 71.8652L9.78516 69.082L12.0996 70.6641C12.5391 70.9277 13.1836 70.8105 13.4766 70.3711C13.7402 69.9316 13.5938 69.2578 13.0078 68.9941L10.5176 67.793L13.0371 66.5332C13.5938 66.2695 13.7109 65.625 13.5059 65.1855C13.2422 64.7168 12.5391 64.6289 12.0996 64.8926L9.78516 66.5332L9.99023 63.6914C10.0488 63.1348 9.60938 62.666 9.08203 62.666C8.4668 62.666 8.11523 63.1348 8.14453 63.6914L8.32031 66.5332L5.97656 64.8926C5.53711 64.6289 4.92188 64.6875 4.62891 65.1855C4.36523 65.625 4.48242 66.2402 5.03906 66.5332L7.55859 67.793L5.03906 69.0234C4.48242 69.2871 4.33594 69.9023 4.59961 70.3711C4.86328 70.8691 5.53711 70.957 5.97656 70.6641L8.32031 69.082L8.17383 71.8652C8.14453 72.3926 8.4668 72.9199 9.08203 72.9199ZM25.3125 72.9199C25.8398 72.9199 26.2207 72.3926 26.1914 71.8652L26.0156 69.082L28.3301 70.6641C28.7402 70.9277 29.4141 70.8105 29.707 70.3711C29.9707 69.9316 29.8242 69.2578 29.2383 68.9941L26.7188 67.793L29.2676 66.5332C29.8242 66.2695 29.9414 65.625 29.7363 65.1855C29.4727 64.7168 28.7402 64.6289 28.3301 64.8926L26.0156 66.5332L26.2207 63.6914C26.2793 63.1348 25.8398 62.666 25.3125 62.666C24.6973 62.666 24.3457 63.1348 24.375 63.6914L24.5508 66.5332L22.1777 64.8926C21.7676 64.6289 21.1523 64.6875 20.8594 65.1855C20.5957 65.625 20.7129 66.2402 21.2695 66.5332L23.7891 67.793L21.2695 69.0234C20.7129 69.2871 20.5664 69.9023 20.8301 70.3711C21.0938 70.8691 21.7676 70.957 22.1777 70.6641L24.5508 69.082L24.4043 71.8652C24.375 72.3926 24.6973 72.9199 25.3125 72.9199ZM41.543 72.9199C42.0703 72.9199 42.4512 72.3926 42.4219 71.8652L42.2168 69.082L44.5605 70.6641C44.9707 70.9277 45.6445 70.8105 45.9375 70.3711C46.2012 69.9316 46.0547 69.2578 45.4688 68.9941L42.9492 67.793L45.498 66.5332C46.0547 66.2695 46.1719 65.625 45.9668 65.1855C45.7031 64.7168 44.9707 64.6289 44.5605 64.8926L42.2168 66.5332L42.4512 63.6914C42.5098 63.1348 42.0703 62.666 41.543 62.666C40.9277 62.666 40.5762 63.1348 40.6055 63.6914L40.7812 66.5332L38.4082 64.8926C37.998 64.6289 37.3828 64.6875 37.0898 65.1855C36.8262 65.625 36.9434 66.2402 37.5 66.5332L40.0195 67.793L37.5 69.0234C36.9434 69.2871 36.7969 69.9023 37.0605 70.3711C37.3242 70.8691 37.998 70.957 38.4082 70.6641L40.7812 69.082L40.6348 71.8652C40.6055 72.3926 40.9277 72.9199 41.543 72.9199Z" fill="#e8b261"/>
  <path d="M13.7695 47.2852L50.127 47.2852C59.7363 47.2852 66.8848 39.9902 66.8848 30.9668C66.8848 21.6211 59.2676 14.7949 49.3359 14.7949C45.6738 7.55859 38.877 2.90039 30.4102 2.90039C19.3945 2.90039 10.3125 11.543 9.3457 22.4121C4.04297 23.9648 0 28.5645 0 34.7461C0 41.6895 5.03906 47.2852 13.7695 47.2852Z" fill="#ffffff" fill-opacity="0.85"/>
 </g>
</svg>
