<?xml version="1.0" encoding="UTF-8"?>
<!--Generator: Apple Native CoreSVG 175.5-->
<!DOCTYPE svg
PUBLIC "-//W3C//DTD SVG 1.1//EN"
       "http://www.w3.org/Graphics/SVG/1.1/DTD/svg11.dtd">
<svg version="1.1" xmlns="http://www.w3.org/2000/svg" xmlns:xlink="http://www.w3.org/1999/xlink" width="66.8848" height="76.8457">
 <g>
  <rect height="76.8457" opacity="0" width="66.8848" x="0" y="0"/>
  <path d="M12.1289 72.3633C12.6562 72.3633 13.0371 71.8652 13.0078 71.3379L12.8027 68.5254L15.1465 70.1074C15.5566 70.4004 16.2305 70.2832 16.4941 69.8438C16.7871 69.4043 16.6113 68.7305 16.0547 68.4668L13.5352 67.2363L16.084 65.9766C16.6113 65.7129 16.7578 65.0977 16.5234 64.6289C16.2891 64.1602 15.5566 64.0723 15.1465 64.3652L12.8027 65.9766L13.0371 63.1641C13.0957 62.6074 12.6562 62.1387 12.1289 62.1387C11.5137 62.1387 11.1328 62.6074 11.1621 63.1641L11.3672 65.9766L8.99414 64.3652C8.58398 64.0723 7.96875 64.1309 7.67578 64.6289C7.41211 65.0977 7.5293 65.7129 8.08594 65.9766L10.6055 67.2363L8.08594 68.4668C7.5293 68.7305 7.38281 69.375 7.64648 69.8438C7.91016 70.3418 8.58398 70.4297 8.99414 70.1367L11.3672 68.5547L11.1914 71.3379C11.1621 71.8652 11.5137 72.3633 12.1289 72.3633ZM26.1035 76.8457C26.6602 76.8457 27.0117 76.3477 26.9824 75.8203L26.8066 73.0371L29.1211 74.5898C29.5605 74.8828 30.2051 74.7656 30.498 74.3262C30.791 73.8867 30.6152 73.2129 30.0586 72.9492L27.5391 71.748L30.0879 70.4883C30.6152 70.2246 30.7617 69.5801 30.5273 69.1113C30.2637 68.6426 29.5605 68.5547 29.1211 68.8477L26.8066 70.4883L27.0117 67.6465C27.0703 67.0898 26.6602 66.6211 26.1035 66.6211C25.4883 66.6211 25.1367 67.0898 25.166 67.6465L25.3418 70.4883L22.998 68.8477C22.5586 68.5547 21.9434 68.6133 21.6504 69.1113C21.3867 69.5801 21.5039 70.1953 22.0605 70.4883L24.6094 71.748L22.0605 72.9785C21.5039 73.2422 21.3574 73.8574 21.6211 74.3262C21.8848 74.8242 22.5586 74.9121 22.998 74.6191L25.3418 73.0371L25.1953 75.8203C25.166 76.3477 25.4883 76.8457 26.1035 76.8457ZM42.832 72.4805C43.3594 72.4805 43.7402 71.9824 43.7109 71.4258L43.5059 68.6426L45.8496 70.2246C46.2598 70.5176 46.9043 70.4004 47.1973 69.9609C47.4902 69.5215 47.3145 68.8477 46.7578 68.584L44.2383 67.3535L46.7871 66.0938C47.3145 65.8301 47.4609 65.1855 47.2266 64.7461C46.9629 64.2773 46.2598 64.1895 45.8496 64.4824L43.5059 66.0938L43.7402 63.2812C43.7988 62.6953 43.3594 62.2266 42.832 62.2266C42.2168 62.2266 41.8359 62.6953 41.8652 63.2812L42.0703 66.0938L39.6973 64.4824C39.2871 64.1895 38.6719 64.248 38.3789 64.7461C38.1152 65.1855 38.2324 65.8301 38.7891 66.0938L41.3086 67.3535L38.7891 68.584C38.2324 68.8477 38.0859 69.4922 38.3496 69.9609C38.6133 70.4297 39.2871 70.5176 39.6973 70.2246L42.0703 68.6719L41.8945 71.4258C41.8652 71.9824 42.2168 72.4805 42.832 72.4805Z" fill="#ffffff" fill-opacity="0.85"/>
  <path d="M17.5488 59.7949L19.5117 56.3379C20.0391 55.459 19.7754 54.4043 18.8965 53.877C18.0176 53.3789 16.9922 53.7012 16.4648 54.5508L14.4727 58.0957C14.0039 58.916 14.209 59.9414 15.1172 60.4688C15.9961 60.9668 17.0508 60.6738 17.5488 59.7949ZM30.3223 64.2773L34.8926 56.3672C35.3906 55.459 35.127 54.4336 34.2773 53.9355C33.3691 53.4082 32.3438 53.7012 31.8457 54.6094L27.2461 62.5781C26.748 63.4277 27.0117 64.4531 27.9199 64.9512C28.7695 65.4492 29.8535 65.1562 30.3223 64.2773ZM48.252 59.9121L50.2148 56.4551C50.7422 55.5762 50.4785 54.5215 49.5996 53.9941C48.7207 53.4961 47.6953 53.8184 47.168 54.668L45.1758 58.2129C44.707 59.0332 44.9121 60.0586 45.8203 60.5859C46.6992 61.084 47.7539 60.7617 48.252 59.9121Z" fill="#e8b261"/>
  <path d="M13.7695 49.248L50.127 49.248C59.7363 49.248 66.8848 41.9531 66.8848 32.9297C66.8848 23.584 59.2676 16.7578 49.3359 16.7578C45.6738 9.52148 38.877 4.86328 30.4102 4.86328C19.3945 4.86328 10.3125 13.5059 9.3457 24.375C4.04297 25.9277 0 30.5273 0 36.709C0 43.6523 5.03906 49.248 13.7695 49.248Z" fill="#ffffff" fill-opacity="0.85"/>
 </g>
</svg>
