<?xml version="1.0" encoding="UTF-8"?>
<!--Generator: Apple Native CoreSVG 175.5-->
<!DOCTYPE svg
PUBLIC "-//W3C//DTD SVG 1.1//EN"
       "http://www.w3.org/Graphics/SVG/1.1/DTD/svg11.dtd">
<svg version="1.1" xmlns="http://www.w3.org/2000/svg" xmlns:xlink="http://www.w3.org/1999/xlink" width="66.8848" height="67.1191">
 <g>
  <rect height="67.1191" opacity="0" width="66.8848" x="0" y="0"/>
  <path d="M52.793 51.1816L14.6777 51.1816C13.6523 51.1816 12.832 51.9727 12.832 53.0273C12.832 54.082 13.6523 54.873 14.6777 54.873L52.793 54.873C53.8184 54.873 54.6387 54.082 54.6387 53.0273C54.6387 51.9727 53.8184 51.1816 52.793 51.1816ZM52.793 61.1133L14.6777 61.1133C13.6523 61.1133 12.832 61.9043 12.832 62.959C12.832 64.0137 13.6523 64.834 14.6777 64.834L52.793 64.834C53.8184 64.834 54.6387 64.0137 54.6387 62.959C54.6387 61.9043 53.8184 61.1133 52.793 61.1133Z" fill="#e8b261"/>
  <path d="M13.7695 44.3848L50.127 44.3848C59.7363 44.3848 66.8848 37.0898 66.8848 28.0664C66.8848 18.7207 59.2676 11.8945 49.3359 11.8945C45.6738 4.6582 38.877 0 30.4102 0C19.3945 0 10.3125 8.64258 9.3457 19.5117C4.04297 21.0645 0 25.6641 0 31.8457C0 38.7891 5.03906 44.3848 13.7695 44.3848Z" fill="#ffffff" fill-opacity="0.85"/>
 </g>
</svg>
