<?xml version="1.0" encoding="UTF-8"?>
<!--Generator: Apple Native CoreSVG 175.5-->
<!DOCTYPE svg
PUBLIC "-//W3C//DTD SVG 1.1//EN"
       "http://www.w3.org/Graphics/SVG/1.1/DTD/svg11.dtd">
<svg version="1.1" xmlns="http://www.w3.org/2000/svg" xmlns:xlink="http://www.w3.org/1999/xlink" width="55.6055" height="65.4616">
 <g>
  <rect height="65.4616" opacity="0" width="55.6055" x="0" y="0"/>
  <path d="M27.334 26.4173C45.293 26.4173 55.6055 21.8763 55.6055 15.6947C55.6055 10.0111 47.4023 6.52476 35.6836 6.52476C26.8945 6.52476 20.0391 8.22398 14.8535 10.6556C13.4473 11.3294 13.125 12.7357 13.6523 13.7318C14.209 14.8451 15.6738 15.138 16.8457 14.64C21.5332 12.6771 27.4512 10.7728 35.4199 10.7728C45.293 10.7728 51.0059 13.1166 51.0059 15.6654C51.0059 18.6537 42.0996 22.0228 27.1289 22.0228C12.4219 22.0228 4.57031 19.1224 4.57031 13.5853C4.57031 10.3334 7.55859 6.90562 16.0547 4.18101C17.4902 3.71226 18.1055 2.56968 17.6953 1.36851C17.2852 0.167336 16.2012-0.301414 14.5898 0.196633C4.74609 3.12632 0 8.25327 0 13.7025C0 22.0228 9.4043 26.4173 27.334 26.4173ZM28.2129 36.0853C37.3828 36.0853 45.8203 34.5619 51.7969 32.1302C52.9102 31.6615 53.4668 30.4896 52.9102 29.4642C52.3828 28.4681 51.3281 28.2923 50.0098 28.7904C44.5898 30.8705 36.709 32.2767 28.2129 32.2767C21.9434 32.2767 14.7363 31.4857 9.11133 29.8451C7.79297 29.4642 6.70898 29.8744 6.38672 30.9876C6.06445 32.0716 6.62109 33.097 7.96875 33.5072C14.0332 35.2064 21.6211 36.0853 28.2129 36.0853ZM30.2051 45.6361C37.8809 45.5775 45.0879 44.4642 51.6797 42.2084C53.2324 41.681 53.4668 40.4505 53.0859 39.5423C52.6758 38.5169 51.6211 38.1947 50.127 38.6927C43.623 40.8021 37.1484 41.7982 30.2051 41.7982C27.2461 41.7982 24.1699 41.5931 21.7676 41.2709C20.332 41.0951 19.4531 41.6517 19.2773 42.7064C19.0723 43.7611 19.6289 44.7572 21.1523 45.0209C23.4082 45.431 26.5723 45.6654 30.2051 45.6361ZM27.5391 54.6302C32.8711 55.2455 39.2871 55.099 44.7949 53.6048C46.1133 53.2533 46.6113 52.0814 46.2891 51.056C45.9375 49.972 44.9121 49.5619 43.5059 49.9134C38.7598 51.1439 33.2812 51.5541 28.1836 50.9095C26.7773 50.763 25.8105 51.4076 25.6641 52.4916C25.5176 53.5755 26.0742 54.4544 27.5391 54.6302ZM25.5469 63.9173C27.3926 64.181 29.5605 64.1517 31.4648 63.9173C32.8125 63.7416 33.4277 62.8919 33.3398 61.808C33.2227 60.8412 32.4609 60.138 31.0254 60.3138C29.4141 60.5189 27.5098 60.5189 25.8691 60.3431C24.5508 60.1673 23.7305 60.8705 23.584 61.808C23.4668 62.8041 24.082 63.7709 25.5469 63.9173Z" fill="#ffffff" fill-opacity="0.85"/>
 </g>
</svg>
