<?xml version="1.0" encoding="UTF-8"?>
<!--Generator: Apple Native CoreSVG 175.5-->
<!DOCTYPE svg
PUBLIC "-//W3C//DTD SVG 1.1//EN"
       "http://www.w3.org/Graphics/SVG/1.1/DTD/svg11.dtd">
<svg version="1.1" xmlns="http://www.w3.org/2000/svg" xmlns:xlink="http://www.w3.org/1999/xlink" width="63.3691" height="63.6035">
 <g>
  <rect height="63.6035" opacity="0" width="63.3691" x="0" y="0"/>
  <path d="M31.6699 46.7285C39.8145 46.7285 46.582 39.9609 46.582 31.7871C46.582 23.584 39.8145 16.8164 31.6699 16.8164C23.5254 16.8164 16.7578 23.584 16.7578 31.7871C16.7578 39.9609 23.5254 46.7285 31.6699 46.7285ZM31.6992 11.3965C33.0762 11.3965 34.2188 10.2539 34.2188 8.84766L34.2188 2.54883C34.2188 1.14258 33.0762 0 31.6992 0C30.293 0 29.1504 1.14258 29.1504 2.54883L29.1504 8.84766C29.1504 10.2539 30.293 11.3965 31.6992 11.3965ZM46.0547 17.4023C47.0508 18.3691 48.6621 18.3984 49.6582 17.4023L54.1406 12.9199C55.1074 11.9531 55.1074 10.3125 54.1406 9.31641C53.1738 8.34961 51.5625 8.34961 50.5664 9.31641L46.0547 13.8281C45.0879 14.8242 45.0879 16.4355 46.0547 17.4023ZM52.002 31.7871C52.002 33.1641 53.1738 34.3066 54.5508 34.3066L60.8496 34.3066C62.2266 34.3066 63.3691 33.1641 63.3691 31.7871C63.3691 30.4102 62.2266 29.2383 60.8496 29.2383L54.5508 29.2383C53.1738 29.2383 52.002 30.4102 52.002 31.7871ZM46.0547 46.1719C45.0879 47.168 45.0879 48.7793 46.0547 49.7461L50.5664 54.2871C51.5625 55.2246 53.1738 55.1953 54.1406 54.2578C55.1074 53.2617 55.1074 51.6504 54.1406 50.6836L49.6289 46.1719C48.6621 45.2344 47.0508 45.2344 46.0547 46.1719ZM31.6992 52.1777C30.293 52.1777 29.1504 53.3203 29.1504 54.6973L29.1504 61.0254C29.1504 62.4023 30.293 63.5449 31.6992 63.5449C33.0762 63.5449 34.2188 62.4023 34.2188 61.0254L34.2188 54.6973C34.2188 53.3203 33.0762 52.1777 31.6992 52.1777ZM17.3145 46.1719C16.3184 45.2344 14.6777 45.2344 13.7109 46.1719L9.22852 50.6543C8.26172 51.6211 8.26172 53.2324 9.19922 54.2285C10.166 55.166 11.8066 55.1953 12.8027 54.2578L17.2852 49.7461C18.252 48.7793 18.252 47.168 17.3145 46.1719ZM11.3672 31.7871C11.3672 30.4102 10.1953 29.2383 8.81836 29.2383L2.51953 29.2383C1.14258 29.2383 0 30.4102 0 31.7871C0 33.1641 1.14258 34.3066 2.51953 34.3066L8.81836 34.3066C10.1953 34.3066 11.3672 33.1641 11.3672 31.7871ZM17.2852 17.4023C18.252 16.4648 18.252 14.7949 17.3145 13.8281L12.832 9.31641C11.8652 8.37891 10.2246 8.34961 9.25781 9.31641C8.29102 10.3125 8.29102 11.9531 9.22852 12.8906L13.7109 17.4023C14.6777 18.3691 16.2891 18.3691 17.2852 17.4023Z" fill="#e8b261"/>
 </g>
</svg>
