<?xml version="1.0" encoding="UTF-8"?>
<!--Generator: Apple Native CoreSVG 175.5-->
<!DOCTYPE svg
PUBLIC "-//W3C//DTD SVG 1.1//EN"
       "http://www.w3.org/Graphics/SVG/1.1/DTD/svg11.dtd">
<svg version="1.1" xmlns="http://www.w3.org/2000/svg" xmlns:xlink="http://www.w3.org/1999/xlink" width="57.8027" height="58.1543">
 <g>
  <rect height="58.1543" opacity="0" width="57.8027" x="0" y="0"/>
  <path d="M45.3223 39.2578C29.4727 39.2578 19.3359 29.3262 19.3359 13.4473C19.3359 10.166 20.127 5.47852 21.1816 3.04688C21.4453 2.37305 21.5039 1.96289 21.5039 1.66992C21.5039 0.878906 20.918 0 19.7754 0C19.4531 0 18.75 0.0878906 18.1055 0.322266C7.26562 4.6582 0 16.3184 0 28.5938C0 45.8203 13.125 58.125 30.293 58.125C42.9199 58.125 53.8477 50.4785 57.4805 40.9277C57.7441 40.2539 57.8027 39.5508 57.8027 39.2871C57.8027 38.2031 56.8945 37.4707 56.0742 37.4707C55.6934 37.4707 55.3711 37.5586 54.8145 37.7344C52.5586 38.4668 48.9258 39.2578 45.3223 39.2578Z" fill="#ffffff" fill-opacity="0.85"/>
 </g>
</svg>
