<?xml version="1.0" encoding="UTF-8"?>
<!--Generator: Apple Native CoreSVG 175.5-->
<!DOCTYPE svg
PUBLIC "-//W3C//DTD SVG 1.1//EN"
       "http://www.w3.org/Graphics/SVG/1.1/DTD/svg11.dtd">
<svg version="1.1" xmlns="http://www.w3.org/2000/svg" xmlns:xlink="http://www.w3.org/1999/xlink" width="84.9023" height="61.5527">
 <g>
  <rect height="61.5527" opacity="0" width="84.9023" x="0" y="0"/>
  <path d="M12.2168 59.0039L43.916 59.0039C52.2656 59.0039 58.7402 52.6758 58.7402 44.5312C58.7402 36.4453 52.1484 30.3223 43.3887 30.2637C40.0195 23.8477 33.9551 19.9219 26.7188 19.9219C17.168 19.9219 9.08203 27.334 8.17383 36.9727C3.31055 38.4375 0 42.5977 0 47.8711C0 54.375 4.89258 59.0039 12.2168 59.0039Z" fill="#ffffff" fill-opacity="0.85"/>
  <path d="M62.1094 42.9492C66.416 40.0195 69.0527 35.5664 69.0527 30.3809C69.0527 22.3242 62.6367 15.8496 54.5801 15.8496C49.2773 15.8496 44.6777 18.7207 42.2461 22.9395C43.4766 24.2285 44.5312 25.6055 45.4102 27.3047C55.0781 28.0664 61.3184 34.1016 62.1094 42.9492ZM37.5879 16.8457C38.5547 17.8125 40.1367 17.7832 41.0449 16.8457C41.9531 15.9082 41.9824 14.3848 41.0449 13.4473L36.5332 8.93555C35.5957 7.99805 34.0723 7.99805 33.1348 8.93555C32.1973 9.87305 32.168 11.4258 33.1348 12.3633ZM54.5801 11.2207C55.9277 11.2207 57.0117 10.0781 57.0117 8.78906L57.0117 2.43164C57.0117 1.11328 55.9277 0 54.5801 0C53.2324 0 52.1484 1.11328 52.1484 2.43164L52.1484 8.78906C52.1484 10.0781 53.2324 11.2207 54.5801 11.2207ZM76.1426 32.8125L82.5 32.8125C83.8184 32.8125 84.9023 31.7285 84.9023 30.3809C84.9023 29.0625 83.8184 27.9492 82.5 27.9492L76.1426 27.9492C74.8535 27.9492 73.7109 29.0625 73.7109 30.3809C73.7109 31.7285 74.8535 32.8125 76.1426 32.8125ZM68.1152 16.8457C69.0234 17.7832 70.6055 17.8125 71.5723 16.8457L76.0547 12.3633C76.9922 11.4258 76.9922 9.87305 76.0547 8.93555C75.1172 7.99805 73.5938 7.99805 72.6562 8.93555L68.1152 13.4473C67.1777 14.3848 67.207 15.9082 68.1152 16.8457ZM72.6562 51.8848C73.5938 52.8223 75.1172 52.793 76.0547 51.8555C76.9922 50.918 76.9922 49.3652 76.0547 48.457L71.5137 43.9746C70.5762 43.0664 69.0527 43.0371 68.1152 43.9746C67.1777 44.9121 67.1777 46.4648 68.1152 47.4023Z" fill="#e8b261"/>
 </g>
</svg>
