<?xml version="1.0" encoding="UTF-8"?>
<!--Generator: Apple Native CoreSVG 175.5-->
<!DOCTYPE svg
PUBLIC "-//W3C//DTD SVG 1.1//EN"
       "http://www.w3.org/Graphics/SVG/1.1/DTD/svg11.dtd">
<svg version="1.1" xmlns="http://www.w3.org/2000/svg" xmlns:xlink="http://www.w3.org/1999/xlink" width="76.6113" height="51.3008">
 <g>
  <rect height="51.3008" opacity="0" width="76.6113" x="0" y="0"/>
  <path d="M62.0215 34.5713C71.1621 32.96 76.6113 25.5186 76.6113 20.7139C76.6113 19.5713 76.1133 18.751 75.1758 18.751C73.7402 18.751 71.6016 20.626 67.5586 20.626C60.4102 20.626 55.8984 16.2901 55.8984 9.75686C55.8984 5.86038 57.9492 3.04788 57.9492 1.49514C57.9492 0.58694 57.334-0.028294 56.1621 0.00100292C50.7422 0.235378 43.8867 6.29983 42.334 14.0928C43.2422 14.9424 44.1211 16.085 44.8535 17.6084C54.6973 18.3701 61.8457 25.8115 62.0215 34.5713Z" fill="#e8b261"/>
  <path d="M12.1582 49.542L43.8574 49.542C52.1777 49.542 58.623 43.2432 58.623 35.128C58.623 27.0713 52.0605 20.9776 43.3008 20.919C39.873 14.3565 33.75 10.5479 26.6895 10.5479C17.1387 10.5479 9.08203 17.96 8.17383 27.5987C3.19336 29.0928 0 33.3115 0 38.4678C0 45.0303 4.95117 49.542 12.1582 49.542Z" fill="#ffffff" fill-opacity="0.85"/>
 </g>
</svg>
