<?xml version="1.0" encoding="UTF-8"?>
<!--Generator: Apple Native CoreSVG 175.5-->
<!DOCTYPE svg
PUBLIC "-//W3C//DTD SVG 1.1//EN"
       "http://www.w3.org/Graphics/SVG/1.1/DTD/svg11.dtd">
<svg version="1.1" xmlns="http://www.w3.org/2000/svg" xmlns:xlink="http://www.w3.org/1999/xlink" width="66.8848" height="69.1699">
 <g>
  <rect height="69.1699" opacity="0" width="66.8848" x="0" y="0"/>
  <path d="M17.5488 55.957L19.5117 52.5C20.0391 51.6211 19.7754 50.5664 18.8965 50.0391C18.0176 49.541 16.9922 49.8633 16.4648 50.7129L14.4727 54.2578C14.0039 55.0781 14.209 56.1035 15.1172 56.6309C15.9961 57.1289 17.0508 56.8359 17.5488 55.957ZM30.3223 60.4395L34.8926 52.5293C35.3906 51.6211 35.127 50.5957 34.2773 50.0977C33.3691 49.5703 32.3438 49.8633 31.8457 50.7715L27.2461 58.7402C26.748 59.5898 27.0117 60.6152 27.9199 61.1133C28.7695 61.6113 29.8535 61.3184 30.3223 60.4395ZM48.252 56.0742L50.2148 52.6172C50.7422 51.7383 50.4785 50.6836 49.5996 50.1562C48.7207 49.6582 47.6953 49.9805 47.168 50.8301L45.1758 54.375C44.707 55.1953 44.9121 56.2207 45.8203 56.748C46.6992 57.2461 47.7539 56.9238 48.252 56.0742ZM12.3633 64.6875C14.0918 64.6875 15.5273 63.2227 15.5273 61.4648C15.5273 59.7656 14.0918 58.3301 12.3633 58.3301C10.6055 58.3301 9.16992 59.7656 9.16992 61.4648C9.16992 63.2227 10.6055 64.6875 12.3633 64.6875ZM25.1367 69.1699C26.8652 69.1699 28.3301 67.7051 28.3301 65.9473C28.3301 64.248 26.8945 62.8125 25.1367 62.8125C23.4082 62.8125 21.9727 64.248 21.9727 65.9473C21.9727 67.7051 23.4082 69.1699 25.1367 69.1699ZM43.0664 64.8047C44.7949 64.8047 46.2305 63.3398 46.2305 61.582C46.2305 59.8828 44.7949 58.418 43.0664 58.418C41.3086 58.418 39.873 59.8828 39.873 61.582C39.873 63.3398 41.3086 64.8047 43.0664 64.8047Z" fill="#e8b261"/>
  <path d="M13.7695 45.4102L50.127 45.4102C59.7363 45.4102 66.8848 38.1152 66.8848 29.0918C66.8848 19.7461 59.2676 12.9199 49.3359 12.9199C45.6738 5.68359 38.877 1.02539 30.4102 1.02539C19.3945 1.02539 10.3125 9.66797 9.3457 20.5371C4.04297 22.0898 0 26.6895 0 32.8711C0 39.8145 5.03906 45.4102 13.7695 45.4102Z" fill="#ffffff" fill-opacity="0.85"/>
 </g>
</svg>
