<?xml version="1.0" encoding="UTF-8"?>
<!--Generator: Apple Native CoreSVG 175.5-->
<!DOCTYPE svg
PUBLIC "-//W3C//DTD SVG 1.1//EN"
       "http://www.w3.org/Graphics/SVG/1.1/DTD/svg11.dtd">
<svg version="1.1" xmlns="http://www.w3.org/2000/svg" xmlns:xlink="http://www.w3.org/1999/xlink" width="60.1431" height="52.002">
 <g>
  <rect height="52.002" opacity="0" width="60.1431" x="0" y="0"/>
  <path d="M2.66264 17.6367C6.88139 16.2891 11.2466 15.5859 15.4068 15.5859C20.7974 15.5859 24.7525 16.4648 29.8501 16.4648C35.1236 16.4648 38.4048 12.8906 38.4048 8.23242C38.4048 3.45703 34.7427 0.0292969 30.231 0.0292969C26.8912 0.0292969 23.9615 2.13867 22.731 4.92188C22.2622 5.88867 22.438 7.00195 23.4634 7.5293C24.4009 7.99805 25.5435 7.70508 26.1587 6.5332C26.8033 5.03906 28.3853 3.86719 30.231 3.86719C32.6626 3.86719 34.5669 5.56641 34.5669 8.23242C34.5669 10.8984 32.7212 12.6562 29.8501 12.6562C24.9869 12.6562 20.9732 11.7773 15.4068 11.7773C10.6314 11.7773 5.7974 12.627 1.49076 14.0039C0.260291 14.3555-0.208459 15.4102 0.0845102 16.4062C0.377479 17.4316 1.34428 18.0176 2.66264 17.6367ZM48.4829 31.3477C55.3091 31.3477 60.1431 27.0117 60.1431 20.9473C60.1431 14.9707 55.5435 10.6348 49.8306 10.6348C44.5279 10.6348 40.6021 14.3262 39.899 19.1602C39.7232 20.3906 40.397 21.3574 41.4517 21.5039C42.5357 21.6504 43.4732 20.9766 43.7076 19.5996C44.2056 16.5234 46.7544 14.4434 49.8306 14.4434C53.4048 14.4434 56.3052 17.1094 56.3052 20.9473C56.3052 24.8438 53.229 27.5391 48.4829 27.5391C39.5474 27.5391 29.9087 22.4414 18.19 22.4414C12.1548 22.4414 6.64701 23.4082 1.49076 25.2246C0.289588 25.6641-0.208459 26.6895 0.0845102 27.6855C0.377479 28.7109 1.37357 29.3262 2.66264 28.8867C7.43803 27.0703 12.4185 26.2793 18.19 26.2793C29.8794 26.2793 38.6099 31.3477 48.4829 31.3477ZM29.8794 52.002C34.3912 52.002 37.8775 48.6621 37.8775 43.8867C37.8775 36.9727 30.8169 33.1055 17.8091 33.1055C12.3599 33.1055 6.47123 34.1602 1.49076 35.8594C0.289588 36.2988-0.208459 37.3242 0.0845102 38.3203C0.377479 39.3457 1.37357 39.9609 2.66264 39.5215C7.32084 37.8516 12.5357 36.9434 17.8091 36.9434C28.4439 36.9434 34.0689 39.6094 34.0689 43.8867C34.0689 46.5527 32.1939 48.1934 29.8794 48.1934C27.565 48.1934 26.1587 46.6406 25.7486 44.1797C25.5728 43.0957 24.7818 42.1875 23.522 42.2754C22.2037 42.3633 21.6763 43.4766 21.8521 44.6777C22.3794 48.75 25.397 52.002 29.8794 52.002Z" fill="#ffffff" fill-opacity="0.85"/>
 </g>
</svg>
